<svg width="25" height="24" viewBox="0 0 25 24" fill="none" xmlns="http://www.w3.org/2000/svg">
<path d="M3.5 10C3.5 6.22876 3.5 4.34315 4.67157 3.17157C5.84315 2 7.72876 2 11.5 2H13.5C17.2712 2 19.1569 2 20.3284 3.17157C21.5 4.34315 21.5 6.22876 21.5 10V14C21.5 17.7712 21.5 19.6569 20.3284 20.8284C19.1569 22 17.2712 22 13.5 22H11.5C7.72876 22 5.84315 22 4.67157 20.8284C3.5 19.6569 3.5 17.7712 3.5 14V10Z" stroke="#1CB0F6" stroke-width="1.5"/>
<path d="M8.5 12H16.5" stroke="#1CB0F6" stroke-width="1.5" stroke-linecap="round"/>
<path d="M8.5 8H16.5" stroke="#1CB0F6" stroke-width="1.5" stroke-linecap="round"/>
<path d="M8.5 16H13.5" stroke="#1CB0F6" stroke-width="1.5" stroke-linecap="round"/>
</svg>
