<svg width="32" height="32" viewBox="0 0 32 32" fill="none" xmlns="http://www.w3.org/2000/svg">
<g filter="url(#filter0_d_2635_18904)">
<path d="M13.9873 4.1297C15.2643 3.53989 16.7357 3.53989 18.0127 4.1297L27.0691 8.31268C28.7684 9.09753 29.8564 10.7986 29.8564 12.6703V19.3298C29.8564 21.2016 28.7684 22.9026 27.0691 23.6875L18.0127 27.8704C16.7357 28.4603 15.2643 28.4603 13.9873 27.8704L4.93089 23.6875C3.23163 22.9026 2.14359 21.2016 2.14359 19.3298V12.6703C2.14359 10.7986 3.23163 9.09753 4.93089 8.31268L13.9873 4.1297Z" fill="#58CC02"/>
</g>
<path d="M15.9999 10.6666C16.9839 10.6666 17.7759 10.6666 18.4212 10.7136L16.5866 13.4666H14.0799L15.9466 10.6666H15.9999ZM11.4474 11.4474C12.1156 10.7797 13.1316 10.6832 14.9844 10.6688L13.1194 13.4666H10.722C10.8004 12.5258 10.9903 11.905 11.4474 11.4474Z" fill="white"/>
<path fill-rule="evenodd" clip-rule="evenodd" d="M10.6666 15.9999C10.6666 15.3402 10.6666 14.7674 10.6805 14.2666H21.3194C21.3333 14.7674 21.3333 15.3402 21.3333 15.9999C21.3333 18.5141 21.3333 19.7711 20.552 20.5519C19.7717 21.3333 18.5141 21.3333 16 21.3333C13.4858 21.3333 12.2288 21.3333 11.4474 20.5519C10.6666 19.7717 10.6666 18.5141 10.6666 15.9999ZM16.5408 16.3119C17.2469 16.7679 17.6 16.9957 17.6 17.3333C17.6 17.6709 17.2469 17.8986 16.5408 18.3546C15.825 18.8165 15.4672 19.0474 15.2 18.8773C14.9333 18.7082 14.9333 18.2501 14.9333 17.3333C14.9333 16.4165 14.9333 15.9583 15.2 15.7887C15.4666 15.6191 15.825 15.8501 16.5408 16.3119Z" fill="white"/>
<path d="M21.2778 13.4666C21.1994 12.5258 21.0096 11.905 20.5525 11.4474C20.2336 11.129 19.8357 10.9407 19.3061 10.8287L17.5466 13.4666H21.2778Z" fill="white"/>
<defs>
<filter id="filter0_d_2635_18904" x="2.14355" y="3.68738" width="27.7129" height="27.8255" filterUnits="userSpaceOnUse" color-interpolation-filters="sRGB">
<feFlood flood-opacity="0" result="BackgroundImageFix"/>
<feColorMatrix in="SourceAlpha" type="matrix" values="0 0 0 0 0 0 0 0 0 0 0 0 0 0 0 0 0 0 127 0" result="hardAlpha"/>
<feOffset dy="3.2"/>
<feComposite in2="hardAlpha" operator="out"/>
<feColorMatrix type="matrix" values="0 0 0 0 0.27451 0 0 0 0 0.639216 0 0 0 0 0.00784314 0 0 0 1 0"/>
<feBlend mode="normal" in2="BackgroundImageFix" result="effect1_dropShadow_2635_18904"/>
<feBlend mode="normal" in="SourceGraphic" in2="effect1_dropShadow_2635_18904" result="shape"/>
</filter>
</defs>
</svg>
