<svg width="32" height="32" viewBox="0 0 32 32" fill="none" xmlns="http://www.w3.org/2000/svg">
<g filter="url(#filter0_d_2635_18912)">
<path d="M13.9873 4.1297C15.2643 3.53989 16.7357 3.53989 18.0127 4.1297L27.0691 8.31268C28.7684 9.09753 29.8564 10.7986 29.8564 12.6703V19.3298C29.8564 21.2016 28.7684 22.9026 27.0691 23.6875L18.0127 27.8704C16.7357 28.4603 15.2643 28.4603 13.9873 27.8704L4.93089 23.6875C3.23163 22.9026 2.14359 21.2016 2.14359 19.3298V12.6703C2.14359 10.7986 3.23163 9.09753 4.93089 8.31268L13.9873 4.1297Z" fill="#58CC02"/>
</g>
<path d="M11.4667 19.0006V13.0561C11.4667 12.4705 11.9392 11.9948 12.5237 12.0305C13.0448 12.0625 13.6603 12.126 14.1333 12.2502C14.6933 12.398 15.3579 12.7126 15.8837 12.9905C16.0475 13.0774 16.2219 13.1372 16.4 13.1713V21.2668C16.2367 21.231 16.0791 21.1729 15.9317 21.094C15.3984 20.8102 14.7104 20.4806 14.1333 20.3281C13.6656 20.2049 13.0581 20.1414 12.5413 20.1094C11.9499 20.0721 11.4667 19.5937 11.4667 19.0006ZM17.2 21.2668C17.3633 21.231 17.5209 21.1729 17.6683 21.094C18.2016 20.8102 18.8896 20.4806 19.4667 20.3281C19.9344 20.2049 20.5419 20.1414 21.0587 20.1094C21.6501 20.0721 22.1333 19.5932 22.1333 19.0001V13.022C22.1333 12.4502 21.6821 11.9804 21.1104 12.0006C20.5083 12.022 19.7584 12.0838 19.2 12.2513C18.7157 12.3958 18.152 12.6865 17.6928 12.9526C17.5388 13.0416 17.3728 13.108 17.2 13.15V21.2668Z" fill="white"/>
<defs>
<filter id="filter0_d_2635_18912" x="2.14355" y="3.68738" width="27.7129" height="27.8255" filterUnits="userSpaceOnUse" color-interpolation-filters="sRGB">
<feFlood flood-opacity="0" result="BackgroundImageFix"/>
<feColorMatrix in="SourceAlpha" type="matrix" values="0 0 0 0 0 0 0 0 0 0 0 0 0 0 0 0 0 0 127 0" result="hardAlpha"/>
<feOffset dy="3.2"/>
<feComposite in2="hardAlpha" operator="out"/>
<feColorMatrix type="matrix" values="0 0 0 0 0.27451 0 0 0 0 0.639216 0 0 0 0 0.00784314 0 0 0 1 0"/>
<feBlend mode="normal" in2="BackgroundImageFix" result="effect1_dropShadow_2635_18912"/>
<feBlend mode="normal" in="SourceGraphic" in2="effect1_dropShadow_2635_18912" result="shape"/>
</filter>
</defs>
</svg>
