<svg width="32" height="32" viewBox="0 0 32 32" fill="none" xmlns="http://www.w3.org/2000/svg">
<g filter="url(#filter0_d_2635_18897)">
<path d="M13.9873 4.1297C15.2643 3.53989 16.7357 3.53989 18.0127 4.1297L27.0691 8.31268C28.7684 9.09753 29.8564 10.7986 29.8564 12.6703V19.3298C29.8564 21.2016 28.7684 22.9026 27.0691 23.6875L18.0127 27.8704C16.7357 28.4603 15.2643 28.4603 13.9873 27.8704L4.93089 23.6875C3.23163 22.9026 2.14359 21.2016 2.14359 19.3298V12.6703C2.14359 10.7986 3.23163 9.09753 4.93089 8.31268L13.9873 4.1297Z" fill="#58CC02"/>
</g>
<path fill-rule="evenodd" clip-rule="evenodd" d="M16 21.3333C16.6303 21.3333 17.2545 21.2091 17.8368 20.9679C18.4192 20.7267 18.9483 20.3731 19.3941 19.9274C19.8398 19.4817 20.1934 18.9525 20.4346 18.3701C20.6758 17.7878 20.8 17.1636 20.8 16.5333C20.8 15.9029 20.6758 15.2788 20.4346 14.6964C20.1934 14.114 19.8398 13.5849 19.3941 13.1392C18.9483 12.6934 18.4192 12.3399 17.8368 12.0986C17.2545 11.8574 16.6303 11.7333 16 11.7333C14.7269 11.7333 13.506 12.239 12.6058 13.1392C11.7057 14.0393 11.2 15.2602 11.2 16.5333C11.2 17.8063 11.7057 19.0272 12.6058 19.9274C13.506 20.8276 14.7269 21.3333 16 21.3333ZM16 13.9999C16.106 13.9999 16.2078 14.0421 16.2828 14.1171C16.3578 14.1921 16.4 14.2938 16.4 14.3999V16.5333C16.4 16.6394 16.3578 16.7411 16.2828 16.8161C16.2078 16.8911 16.106 16.9333 16 16.9333C15.8939 16.9333 15.7921 16.8911 15.7171 16.8161C15.6421 16.7411 15.6 16.6394 15.6 16.5333V14.3999C15.6 14.2938 15.6421 14.1921 15.7171 14.1171C15.7921 14.0421 15.8939 13.9999 16 13.9999ZM14.5333 10.6666C14.5333 10.5605 14.5754 10.4588 14.6504 10.3838C14.7255 10.3087 14.8272 10.2666 14.9333 10.2666H17.0666C17.1727 10.2666 17.2744 10.3087 17.3495 10.3838C17.4245 10.4588 17.4666 10.5605 17.4666 10.6666C17.4666 10.7727 17.4245 10.8744 17.3495 10.9494C17.2744 11.0245 17.1727 11.0666 17.0666 11.0666H14.9333C14.8272 11.0666 14.7255 11.0245 14.6504 10.9494C14.5754 10.8744 14.5333 10.7727 14.5333 10.6666Z" fill="white"/>
<defs>
<filter id="filter0_d_2635_18897" x="2.14355" y="3.68738" width="27.7129" height="27.8255" filterUnits="userSpaceOnUse" color-interpolation-filters="sRGB">
<feFlood flood-opacity="0" result="BackgroundImageFix"/>
<feColorMatrix in="SourceAlpha" type="matrix" values="0 0 0 0 0 0 0 0 0 0 0 0 0 0 0 0 0 0 127 0" result="hardAlpha"/>
<feOffset dy="3.2"/>
<feComposite in2="hardAlpha" operator="out"/>
<feColorMatrix type="matrix" values="0 0 0 0 0.27451 0 0 0 0 0.639216 0 0 0 0 0.00784314 0 0 0 1 0"/>
<feBlend mode="normal" in2="BackgroundImageFix" result="effect1_dropShadow_2635_18897"/>
<feBlend mode="normal" in="SourceGraphic" in2="effect1_dropShadow_2635_18897" result="shape"/>
</filter>
</defs>
</svg>
