<svg width="22" height="22" viewBox="0 0 22 22" fill="none" xmlns="http://www.w3.org/2000/svg">
<path d="M17 7C17 8.10457 16.1046 9 15 9C13.8954 9 13 8.10457 13 7C13 5.89543 13.8954 5 15 5C16.1046 5 17 5.89543 17 7Z" fill="#67748E"/>
<path fill-rule="evenodd" clip-rule="evenodd" d="M10.9426 0.25H11.0574C13.3658 0.249988 15.1748 0.249978 16.5863 0.439747C18.031 0.633987 19.1711 1.03933 20.0659 1.93414C20.9607 2.82895 21.366 3.96897 21.5603 5.41371C21.75 6.82519 21.75 8.63423 21.75 10.9426V11.0309C21.75 12.9397 21.75 14.5023 21.6463 15.7745C21.5422 17.0531 21.3287 18.1214 20.8509 19.0087C20.6401 19.4001 20.3812 19.7506 20.0659 20.0659C19.1711 20.9607 18.031 21.366 16.5863 21.5603C15.1748 21.75 13.3658 21.75 11.0574 21.75H10.9426C8.63423 21.75 6.82519 21.75 5.41371 21.5603C3.96897 21.366 2.82895 20.9607 1.93414 20.0659C1.14086 19.2726 0.731199 18.2852 0.513351 17.0604C0.29935 15.8573 0.260202 14.3603 0.25207 12.5015C0.25 12.0287 0.25 11.5286 0.25 11.001V10.9426C0.249988 8.63424 0.249978 6.82519 0.439747 5.41371C0.633987 3.96897 1.03933 2.82895 1.93414 1.93414C2.82895 1.03933 3.96897 0.633987 5.41371 0.439747C6.82519 0.249978 8.63424 0.249988 10.9426 0.25ZM5.61358 1.92637C4.33517 2.09825 3.56445 2.42514 2.9948 2.9948C2.42514 3.56445 2.09825 4.33517 1.92637 5.61358C1.75159 6.91356 1.75 8.62178 1.75 11C1.75 11.2905 1.75 11.5715 1.75034 11.8435L2.75148 10.9675C3.66275 10.1702 5.03617 10.2159 5.89238 11.0721L10.1821 15.3618C10.8693 16.0491 11.9511 16.1428 12.7463 15.5839L13.0445 15.3744C14.1887 14.5702 15.7368 14.6634 16.7764 15.599L19.6068 18.1463C19.8917 17.548 20.0609 16.7618 20.1513 15.6527C20.2494 14.4482 20.25 12.9459 20.25 11C20.25 8.62178 20.2484 6.91356 20.0736 5.61358C19.9018 4.33517 19.5749 3.56445 19.0052 2.9948C18.4355 2.42514 17.6648 2.09825 16.3864 1.92637C15.0864 1.75159 13.3782 1.75 11 1.75C8.62178 1.75 6.91356 1.75159 5.61358 1.92637Z" fill="#67748E"/>
</svg>
