<svg width="28" height="24" viewBox="0 0 28 24" fill="none" xmlns="http://www.w3.org/2000/svg">
<path d="M0.666687 17.5016V2.64025C0.666687 1.17625 1.84802 -0.0130867 3.30935 0.0762466C4.61202 0.156247 6.15069 0.314913 7.33335 0.62558C8.73335 0.994913 10.3947 1.78158 11.7094 2.47625C12.1187 2.69358 12.5547 2.84291 13 2.92825V23.1669C12.5918 23.0776 12.1978 22.9322 11.8294 22.7349C10.496 22.0256 8.77602 21.2016 7.33335 20.8202C6.16402 20.5122 4.64535 20.3536 3.35335 20.2736C1.87469 20.1802 0.666687 18.9842 0.666687 17.5016ZM15 23.1669C15.4083 23.0776 15.8022 22.9322 16.1707 22.7349C17.504 22.0256 19.224 21.2016 20.6667 20.8202C21.836 20.5122 23.3547 20.3536 24.6467 20.2736C26.1254 20.1802 27.3334 18.9829 27.3334 17.5002V2.55491C27.3334 1.12558 26.2054 -0.0490867 24.776 0.00157996C23.2707 0.0549133 21.396 0.20958 20 0.628247C18.7894 0.98958 17.38 1.71625 16.232 2.38158C15.847 2.60388 15.4321 2.77 15 2.87491V23.1669Z" fill="white"/>
</svg>
