<svg width="24" height="24" viewBox="0 0 24 24" fill="none" xmlns="http://www.w3.org/2000/svg">
<path d="M14.2171 3.49999C13.5242 3.17113 12.767 3.00052 12.0001 3.00052C11.2332 3.00052 10.4759 3.17113 9.78305 3.49999L3.09205 6.63699C2.01605 7.14099 1.73505 8.56399 2.25005 9.54699V14.5C2.25005 14.6989 2.32907 14.8897 2.46972 15.0303C2.61038 15.171 2.80114 15.25 3.00005 15.25C3.19897 15.25 3.38973 15.171 3.53038 15.0303C3.67104 14.8897 3.75005 14.6989 3.75005 14.5V10.672L9.78305 13.5C10.4759 13.8289 11.2332 13.9995 12.0001 13.9995C12.767 13.9995 13.5242 13.8289 14.2171 13.5L20.9081 10.363C22.3641 9.68099 22.3641 7.31899 20.9081 6.63699L14.2171 3.49999Z" fill="#58CC02"/>
<path d="M5 12.915V16.625C5 17.633 5.503 18.577 6.385 19.065C7.854 19.88 10.204 21 12 21C13.796 21 16.146 19.879 17.615 19.066C18.497 18.577 19 17.633 19 16.626V12.915L14.854 14.859C13.9618 15.2813 12.9871 15.5004 12 15.5004C11.0129 15.5004 10.0382 15.2813 9.146 14.859L5 12.915Z" fill="#58CC02"/>
</svg>
