<svg width="24" height="24" viewBox="0 0 24 24" fill="none" xmlns="http://www.w3.org/2000/svg">
<path d="M16.5 4.25C17.6272 4.25 18.7082 4.69777 19.5052 5.4948C20.3022 6.29183 20.75 7.37283 20.75 8.5C20.75 9.62717 20.3022 10.7082 19.5052 11.5052C18.7082 12.3022 17.6272 12.75 16.5 12.75H7.5C6.77065 12.75 6.07118 13.0397 5.55546 13.5555C5.03973 14.0712 4.75 14.7707 4.75 15.5C4.75 16.2293 5.03973 16.9288 5.55546 17.4445C6.07118 17.9603 6.77065 18.25 7.5 18.25H18.19L17.47 17.53C17.3963 17.4613 17.3372 17.3785 17.2962 17.2865C17.2552 17.1945 17.2332 17.0952 17.2314 16.9945C17.2296 16.8938 17.2482 16.7938 17.2859 16.7004C17.3236 16.607 17.3797 16.5222 17.451 16.451C17.5222 16.3797 17.607 16.3236 17.7004 16.2859C17.7938 16.2482 17.8938 16.2296 17.9945 16.2314C18.0952 16.2332 18.1945 16.2552 18.2865 16.2962C18.3785 16.3372 18.4613 16.3963 18.53 16.47L20.53 18.47C20.6705 18.6106 20.7493 18.8013 20.7493 19C20.7493 19.1988 20.6705 19.3894 20.53 19.53L18.53 21.53C18.4613 21.6037 18.3785 21.6628 18.2865 21.7038C18.1945 21.7448 18.0952 21.7668 17.9945 21.7686C17.8938 21.7704 17.7938 21.7518 17.7004 21.7141C17.607 21.6764 17.5222 21.6203 17.451 21.549C17.3797 21.4778 17.3236 21.393 17.2859 21.2996C17.2482 21.2062 17.2296 21.1062 17.2314 21.0055C17.2332 20.9048 17.2552 20.8055 17.2962 20.7135C17.3372 20.6215 17.3963 20.5387 17.47 20.47L18.19 19.75H7.5C6.37283 19.75 5.29183 19.3022 4.4948 18.5052C3.69777 17.7082 3.25 16.6272 3.25 15.5C3.25 14.3728 3.69777 13.2918 4.4948 12.4948C5.29183 11.6978 6.37283 11.25 7.5 11.25H16.5C17.2293 11.25 17.9288 10.9603 18.4445 10.4445C18.9603 9.92882 19.25 9.22935 19.25 8.5C19.25 7.77066 18.9603 7.07118 18.4445 6.55546C17.9288 6.03973 17.2293 5.75 16.5 5.75H7.855C7.68095 6.18027 7.36267 6.5366 6.95471 6.75794C6.54675 6.97928 6.07451 7.05183 5.61892 6.96318C5.16333 6.87452 4.75276 6.63017 4.45757 6.272C4.16238 5.91383 4.00095 5.46414 4.00095 5C4.00095 4.53587 4.16238 4.08618 4.45757 3.72801C4.75276 3.36984 5.16333 3.12549 5.61892 3.03683C6.07451 2.94817 6.54675 3.02073 6.95471 3.24207C7.36267 3.4634 7.68095 3.81974 7.855 4.25H16.5Z" fill="#202020"/>
</svg>
