<svg width="40" height="40" viewBox="0 0 40 40" fill="none" xmlns="http://www.w3.org/2000/svg">
<g id="fluent:math-symbols-16-filled">
<path id="Vector" d="M9.3749 15.625V13.125H6.8749C6.37761 13.125 5.9007 12.9275 5.54907 12.5758C5.19744 12.2242 4.9999 11.7473 4.9999 11.25C4.9999 10.7527 5.19744 10.2758 5.54907 9.92417C5.9007 9.57254 6.37761 9.375 6.8749 9.375H9.3749V6.875C9.3749 6.37772 9.57244 5.90081 9.92407 5.54917C10.2757 5.19754 10.7526 5 11.2499 5C11.7472 5 12.2241 5.19754 12.5757 5.54917C12.9274 5.90081 13.1249 6.37772 13.1249 6.875V9.375H15.6249C16.1222 9.375 16.5991 9.57254 16.9507 9.92417C17.3024 10.2758 17.4999 10.7527 17.4999 11.25C17.4999 11.7473 17.3024 12.2242 16.9507 12.5758C16.5991 12.9275 16.1222 13.125 15.6249 13.125H13.1249V15.625C13.1249 16.1223 12.9274 16.5992 12.5757 16.9508C12.2241 17.3025 11.7472 17.5 11.2499 17.5C10.7526 17.5 10.2757 17.3025 9.92407 16.9508C9.57244 16.5992 9.3749 16.1223 9.3749 15.625ZM24.3749 9.375C23.8776 9.375 23.4007 9.57254 23.0491 9.92417C22.6974 10.2758 22.4999 10.7527 22.4999 11.25C22.4999 11.7473 22.6974 12.2242 23.0491 12.5758C23.4007 12.9275 23.8776 13.125 24.3749 13.125H33.1249C33.6222 13.125 34.0991 12.9275 34.4507 12.5758C34.8024 12.2242 34.9999 11.7473 34.9999 11.25C34.9999 10.7527 34.8024 10.2758 34.4507 9.92417C34.0991 9.57254 33.6222 9.375 33.1249 9.375H24.3749ZM5.5499 31.8C5.36568 31.9717 5.21792 32.1787 5.11544 32.4087C5.01296 32.6387 4.95786 32.8869 4.95342 33.1387C4.94897 33.3905 4.99529 33.6405 5.08959 33.874C5.18389 34.1075 5.32425 34.3195 5.5023 34.4976C5.68035 34.6756 5.89243 34.816 6.1259 34.9103C6.35937 35.0046 6.60944 35.0509 6.8612 35.0465C7.11296 35.042 7.36124 34.9869 7.59124 34.8845C7.82124 34.782 8.02824 34.6342 8.1999 34.45L11.2499 31.4L14.2999 34.45C14.6553 34.7812 15.1254 34.9615 15.6112 34.9529C16.097 34.9444 16.5604 34.7476 16.904 34.4041C17.2475 34.0605 17.4443 33.5971 17.4528 33.1113C17.4614 32.6256 17.2811 32.1554 16.9499 31.8L13.8999 28.75L16.9499 25.7C17.1341 25.5283 17.2819 25.3213 17.3843 25.0913C17.4868 24.8613 17.5419 24.6131 17.5464 24.3613C17.5508 24.1095 17.5045 23.8595 17.4102 23.626C17.3159 23.3925 17.1755 23.1805 16.9975 23.0024C16.8194 22.8244 16.6074 22.684 16.3739 22.5897C16.1404 22.4954 15.8903 22.4491 15.6386 22.4535C15.3868 22.458 15.1385 22.5131 14.9086 22.6155C14.6786 22.718 14.4715 22.8658 14.2999 23.05L11.2499 26.1L8.1999 23.05C7.84446 22.7188 7.37434 22.5385 6.88859 22.5471C6.40284 22.5556 5.93937 22.7524 5.59584 23.0959C5.25231 23.4395 5.05553 23.9029 5.04696 24.3887C5.03839 24.8744 5.2187 25.3446 5.5499 25.7L8.5999 28.75L5.5499 31.8ZM28.7499 25C29.4129 25 30.0488 24.7366 30.5177 24.2678C30.9865 23.7989 31.2499 23.163 31.2499 22.5C31.2499 21.837 30.9865 21.2011 30.5177 20.7322C30.0488 20.2634 29.4129 20 28.7499 20C28.0869 20 27.451 20.2634 26.9821 20.7322C26.5133 21.2011 26.2499 21.837 26.2499 22.5C26.2499 23.163 26.5133 23.7989 26.9821 24.2678C27.451 24.7366 28.0869 25 28.7499 25ZM23.7499 25.625C23.2526 25.625 22.7757 25.8225 22.4241 26.1742C22.0724 26.5258 21.8749 27.0027 21.8749 27.5C21.8749 27.9973 22.0724 28.4742 22.4241 28.8258C22.7757 29.1775 23.2526 29.375 23.7499 29.375H33.7499C34.2472 29.375 34.7241 29.1775 35.0757 28.8258C35.4274 28.4742 35.6249 27.9973 35.6249 27.5C35.6249 27.0027 35.4274 26.5258 35.0757 26.1742C34.7241 25.8225 34.2472 25.625 33.7499 25.625H23.7499ZM31.2499 32.5C31.2499 33.163 30.9865 33.7989 30.5177 34.2678C30.0488 34.7366 29.4129 35 28.7499 35C28.0869 35 27.451 34.7366 26.9821 34.2678C26.5133 33.7989 26.2499 33.163 26.2499 32.5C26.2499 31.837 26.5133 31.2011 26.9821 30.7322C27.451 30.2634 28.0869 30 28.7499 30C29.4129 30 30.0488 30.2634 30.5177 30.7322C30.9865 31.2011 31.2499 31.837 31.2499 32.5Z" fill="white"/>
</g>
</svg>
