<svg width="40" height="40" viewBox="0 0 40 40" fill="none" xmlns="http://www.w3.org/2000/svg">
<g id="hugeicons:physics">
<g id="Group">
<path id="Vector" d="M19.9999 9.65494C21.979 11.098 23.8415 12.6946 25.5699 14.4299C27.3053 16.1584 28.9019 18.0208 30.3449 19.9999M19.9999 9.65494C18.0208 11.098 16.1584 12.6946 14.4299 14.4299C12.6946 16.1584 11.098 18.0208 9.65494 19.9999M19.9999 9.65494C25.9499 5.34828 31.5783 3.73161 33.9233 6.07661C36.2683 8.42161 34.6516 14.0499 30.3449 19.9999M30.3449 19.9999C34.6516 25.9499 36.2683 31.5783 33.9233 33.9233C32.1849 35.6616 28.6399 35.2233 24.4999 33.1233M30.3449 19.9999C28.9019 21.979 27.3053 23.8415 25.5699 25.5699C23.8415 27.3053 21.979 28.9019 19.9999 30.3449M9.65494 19.9999C11.098 21.979 12.6946 23.8415 14.4299 25.5699C16.1584 27.3053 18.0208 28.9019 19.9999 30.3449M9.65494 19.9999C5.34828 25.9499 3.73161 31.5783 6.07661 33.9233C8.42161 36.2683 14.0499 34.6516 19.9999 30.3449M9.65494 19.9999C5.34994 14.0499 3.73328 8.42161 6.07661 6.07661C7.81494 4.33828 11.3599 4.77661 15.4999 6.87661" stroke="white" stroke-width="2.5" stroke-linecap="round" stroke-linejoin="round"/>
<path id="Vector_2" d="M19.9998 23.3332C21.8408 23.3332 23.3332 21.8408 23.3332 19.9998C23.3332 18.1589 21.8408 16.6665 19.9998 16.6665C18.1589 16.6665 16.6665 18.1589 16.6665 19.9998C16.6665 21.8408 18.1589 23.3332 19.9998 23.3332Z" stroke="white" stroke-width="2.5" stroke-linecap="round" stroke-linejoin="round"/>
</g>
</g>
</svg>
