<svg width="40" height="40" viewBox="0 0 40 40" fill="none" xmlns="http://www.w3.org/2000/svg">
<g id="Frame" clip-path="url(#clip0_560_7631)">
<g id="Group">
<path id="Vector" d="M5.15625 22.8125H5.54688V25.1562H20.3906V22.8125H20.7812C21.4284 22.8125 21.9531 22.2878 21.9531 21.6406C21.9531 20.9934 21.4284 20.4688 20.7812 20.4688H5.15625C4.50906 20.4688 3.98438 20.9934 3.98438 21.6406C3.98438 22.2878 4.50906 22.8125 5.15625 22.8125ZM23.1027 29.5412L20.7812 27.5H5.15625L2.83477 29.5413C2.45954 29.8713 2.15895 30.2774 1.95304 30.7326C1.74713 31.1879 1.64062 31.6818 1.64063 32.1814V37.2656C1.64063 38.7758 2.86484 40 4.375 40H21.5625C23.0727 40 24.2969 38.7758 24.2969 37.2656V32.1814C24.2969 31.6818 24.1904 31.1878 23.9844 30.7326C23.7785 30.2773 23.478 29.8712 23.1027 29.5412ZM37.1863 0C30.4985 0 25.077 5.42156 25.077 12.1094V22.6677C25.077 24.2328 25.6864 25.7043 26.7931 26.8109L29.7645 29.7823V12.1094C29.7645 11.4622 30.2891 10.9375 30.9363 10.9375C31.5835 10.9375 32.1082 11.4622 32.1082 12.1094V29.7823L35.0795 26.8109C36.1862 25.7042 36.7957 24.2328 36.7957 22.6677V9.28555C36.7957 6.65531 37.2976 4.04922 38.2744 1.60703C38.5823 0.837344 38.0154 0 37.1863 0ZM30.1077 30.1255L29.7645 29.7823V38.7951C29.7645 39.4261 30.2494 39.9691 30.8797 39.9987C31.5527 40.0305 32.1082 39.4942 32.1082 38.8282V29.7823L31.765 30.1255C31.3073 30.5832 30.5653 30.5832 30.1077 30.1255Z" fill="white"/>
</g>
</g>
<defs>
<clipPath id="clip0_560_7631">
<rect width="40" height="40" fill="white"/>
</clipPath>
</defs>
</svg>
