<svg width="40" height="40" viewBox="0 0 40 40" fill="none" xmlns="http://www.w3.org/2000/svg">
<g id="lets-icons:chemistry">
<g id="Group">
<path id="Vector" d="M18.3333 11.6665L21.6667 16.6665L18.3333 21.6665H13.3333L10 16.6665L13.3333 11.6665H18.3333Z" stroke="white" stroke-width="3.33333" stroke-linecap="round" stroke-linejoin="round"/>
<path id="Vector_2" d="M26.6665 16.6665L29.9998 11.6665L26.6665 6.6665H21.6665L18.3332 11.6665L21.6665 16.6665M26.6665 16.6665H21.6665M26.6665 16.6665L29.9998 21.6665M21.6665 16.6665L18.3332 21.6665L21.6665 26.6665M26.6665 26.6665L29.9998 31.6665M26.6665 26.6665L29.9998 21.6665M26.6665 26.6665H21.6665M8.33317 6.6665L13.3332 11.6665M13.3332 21.6665L9.99984 24.9998M21.6665 26.6665L18.3332 29.9998M9.99984 16.6665H6.6665M29.9998 21.6665H34.9998" stroke="white" stroke-width="3.33333" stroke-linecap="round" stroke-linejoin="round"/>
<path id="Vector_3" d="M15.0002 34.9998C15.9206 34.9998 16.6668 34.2536 16.6668 33.3332C16.6668 32.4127 15.9206 31.6665 15.0002 31.6665C14.0797 31.6665 13.3335 32.4127 13.3335 33.3332C13.3335 34.2536 14.0797 34.9998 15.0002 34.9998Z" fill="white"/>
<path id="Vector_4" d="M6.66667 29.9998C7.58714 29.9998 8.33333 29.2536 8.33333 28.3332C8.33333 27.4127 7.58714 26.6665 6.66667 26.6665C5.74619 26.6665 5 27.4127 5 28.3332C5 29.2536 5.74619 29.9998 6.66667 29.9998Z" fill="white"/>
<path id="Vector_5" d="M35.0002 13.3333C35.9206 13.3333 36.6668 12.5871 36.6668 11.6667C36.6668 10.7462 35.9206 10 35.0002 10C34.0797 10 33.3335 10.7462 33.3335 11.6667C33.3335 12.5871 34.0797 13.3333 35.0002 13.3333Z" fill="white"/>
</g>
</g>
</svg>
