<svg width="32" height="32" viewBox="0 0 32 32" fill="none" xmlns="http://www.w3.org/2000/svg">
<path fill-rule="evenodd" clip-rule="evenodd" d="M13.7673 10.4327C13.9371 10.5143 14.0803 10.6422 14.1806 10.8017C14.2808 10.9611 14.334 11.1457 14.334 11.334L14.334 20.6673C14.334 20.9326 14.2286 21.1869 14.0411 21.3745C13.8536 21.562 13.5992 21.6673 13.334 21.6673C13.0688 21.6673 12.8144 21.562 12.6269 21.3745C12.4393 21.1869 12.334 20.9326 12.334 20.6673L12.334 13.414L10.626 14.782C10.5234 14.864 10.4056 14.9251 10.2794 14.9616C10.1532 14.9981 10.0211 15.0094 9.89054 14.9949C9.75998 14.9803 9.63357 14.9402 9.51851 14.8768C9.40346 14.8134 9.30202 14.728 9.21999 14.6253C9.13796 14.5227 9.07694 14.405 9.04041 14.2788C9.00389 14.1526 8.99258 14.0205 9.00713 13.8899C9.03651 13.6262 9.16943 13.385 9.37665 13.2193L12.71 10.5527C12.8571 10.4352 13.0343 10.3616 13.2214 10.3404C13.4084 10.3191 13.5977 10.3511 13.7673 10.4327ZM16.9007 11.4727C17.0114 11.1412 17.2235 10.8529 17.507 10.6486C17.7906 10.4442 18.1312 10.3342 18.4807 10.334H22.0007C22.2659 10.334 22.5202 10.4394 22.7078 10.6269C22.8953 10.8144 23.0007 11.0688 23.0007 11.334C23.0007 11.5992 22.8953 11.8536 22.7078 12.0411C22.5202 12.2287 22.2659 12.334 22.0007 12.334H18.7207L18.054 14.334H19.334C20.3064 14.334 21.2391 14.7203 21.9267 15.408C22.6143 16.0956 23.0007 17.0282 23.0007 18.0007C23.0007 18.9731 22.6143 19.9058 21.9267 20.5934C21.2391 21.281 20.3064 21.6673 19.334 21.6673H16.6673C16.4021 21.6673 16.1478 21.562 15.9602 21.3745C15.7727 21.1869 15.6673 20.9326 15.6673 20.6673C15.6673 20.4021 15.7727 20.1478 15.9602 19.9602C16.1478 19.7727 16.4021 19.6673 16.6673 19.6673H19.334C19.776 19.6673 20.1999 19.4918 20.5125 19.1792C20.8251 18.8666 21.0007 18.4427 21.0007 18.0007C21.0007 17.5587 20.8251 17.1347 20.5125 16.8222C20.1999 16.5096 19.776 16.334 19.334 16.334H17.5927C17.3286 16.334 17.0683 16.2713 16.8333 16.151C16.5982 16.0307 16.3951 15.8562 16.2407 15.6421C16.0862 15.4279 15.9849 15.18 15.945 14.919C15.9052 14.658 15.9279 14.3912 16.0113 14.1407L16.9007 11.4727Z" fill="white"/>
<path fill-rule="evenodd" clip-rule="evenodd" d="M16.9017 2.23366C16.82 2.06391 16.6921 1.92066 16.5327 1.8204C16.3732 1.72015 16.1887 1.66697 16.0003 1.66699C15.019 1.66877 14.0634 1.76433 13.1337 1.95366C6.59366 3.28166 1.66699 9.06432 1.66699 16.0003C1.66699 23.9163 8.08433 30.3337 16.0003 30.3337C23.9163 30.3337 30.3337 23.9163 30.3337 16.0003C30.3337 10.1203 26.7937 5.07099 21.7337 2.86033C21.4924 2.76368 21.223 2.76477 20.9825 2.86335C20.742 2.96193 20.5494 3.15025 20.4454 3.38843C20.3414 3.62661 20.3342 3.89592 20.4253 4.13931C20.5165 4.3827 20.6988 4.58105 20.9337 4.69233C22.9714 5.58168 24.7309 7.00536 26.0259 8.81272C27.3208 10.6201 28.1031 12.7439 28.29 14.9594C28.4769 17.1749 28.0614 19.3998 27.0874 21.3985C26.1135 23.3972 24.6174 25.0955 22.7574 26.3136C20.8974 27.5318 18.7427 28.2244 16.5212 28.3183C14.2998 28.4122 12.0944 27.9039 10.1382 26.8471C8.18199 25.7903 6.54787 24.2244 5.40872 22.315C4.26957 20.4056 3.66777 18.2237 3.66699 16.0003C3.6674 13.3696 4.50853 10.8079 6.06763 8.68893C7.62673 6.56999 9.8222 5.00476 12.3337 4.22166V6.00033C12.3334 6.20771 12.3976 6.41004 12.5175 6.57931C12.6373 6.74857 12.8068 6.8764 13.0024 6.9451C13.1981 7.01379 13.4103 7.01994 13.6096 6.96271C13.809 6.90548 13.9856 6.78769 14.115 6.62566L16.7817 3.29233C16.8994 3.14511 16.9732 2.96762 16.9944 2.7803C17.0156 2.59299 16.9835 2.40349 16.9017 2.23366Z" fill="white"/>
</svg>
