<svg width="48" height="48" viewBox="0 0 48 48" fill="none" xmlns="http://www.w3.org/2000/svg">
<path d="M4 12.001C4 8.22974 4 6.34412 5.17157 5.17255C6.34315 4.00098 8.22876 4.00098 12 4.00098C15.7712 4.00098 17.6569 4.00098 18.8284 5.17255C20 6.34412 20 8.22974 20 12.001V36.001C20 39.7722 20 41.6578 18.8284 42.8294C17.6569 44.001 15.7712 44.001 12 44.001C8.22876 44.001 6.34315 44.001 5.17157 42.8294C4 41.6578 4 39.7722 4 36.001V12.001Z" fill="#1CB0F6"/>
<path d="M28 12.001C28 8.22974 28 6.34412 29.1716 5.17255C30.3431 4.00098 32.2288 4.00098 36 4.00098C39.7712 4.00098 41.6568 4.00098 42.8284 5.17255C44 6.34412 44 8.22974 44 12.001V36.001C44 39.7722 44 41.6578 42.8284 42.8294C41.6568 44.001 39.7712 44.001 36 44.001C32.2288 44.001 30.3431 44.001 29.1716 42.8294C28 41.6578 28 39.7722 28 36.001V12.001Z" fill="#1CB0F6"/>
<rect x="38" y="11.5801" width="4" height="24" rx="2" fill="#B3E8FC" fill-opacity="0.5"/>
<rect x="14" y="11.5801" width="4" height="24" rx="2" fill="#B3E8FC" fill-opacity="0.5"/>
</svg>
