<svg width="32" height="32" viewBox="0 0 32 32" fill="none" xmlns="http://www.w3.org/2000/svg">
<path fill-rule="evenodd" clip-rule="evenodd" d="M13.7673 10.4327C13.9371 10.5143 14.0803 10.6422 14.1806 10.8017C14.2808 10.9611 14.334 11.1457 14.334 11.334L14.334 20.6673C14.334 20.9326 14.2286 21.1869 14.0411 21.3745C13.8536 21.562 13.5992 21.6673 13.334 21.6673C13.0688 21.6673 12.8144 21.562 12.6269 21.3745C12.4393 21.1869 12.334 20.9326 12.334 20.6673L12.334 13.414L10.626 14.782C10.5234 14.864 10.4056 14.9251 10.2794 14.9616C10.1532 14.9981 10.0211 15.0094 9.89054 14.9949C9.75998 14.9803 9.63357 14.9402 9.51851 14.8768C9.40346 14.8134 9.30202 14.728 9.21999 14.6253C9.13796 14.5227 9.07694 14.405 9.04041 14.2788C9.00389 14.1526 8.99258 14.0205 9.00713 13.8899C9.03651 13.6262 9.16943 13.385 9.37665 13.2193L12.71 10.5527C12.8571 10.4352 13.0343 10.3616 13.2214 10.3404C13.4084 10.3191 13.5977 10.3511 13.7673 10.4327ZM19.0007 12.334C18.647 12.334 18.3079 12.4745 18.0578 12.7245C17.8078 12.9746 17.6673 13.3137 17.6673 13.6673V18.334C17.6673 18.6876 17.8078 19.0268 18.0578 19.2768C18.3079 19.5269 18.647 19.6673 19.0007 19.6673C19.3543 19.6673 19.6934 19.5269 19.9435 19.2768C20.1935 19.0268 20.334 18.6876 20.334 18.334V13.6673C20.334 13.3137 20.1935 12.9746 19.9435 12.7245C19.6934 12.4745 19.3543 12.334 19.0007 12.334ZM15.6673 13.6673C15.6673 12.7833 16.0185 11.9354 16.6436 11.3103C17.2688 10.6852 18.1166 10.334 19.0007 10.334C19.8847 10.334 20.7326 10.6852 21.3577 11.3103C21.9828 11.9354 22.334 12.7833 22.334 13.6673V18.334C22.334 19.2181 21.9828 20.0659 21.3577 20.691C20.7326 21.3162 19.8847 21.6673 19.0007 21.6673C18.1166 21.6673 17.2688 21.3162 16.6436 20.691C16.0185 20.0659 15.6673 19.2181 15.6673 18.334V13.6673Z" fill="white"/>
<path fill-rule="evenodd" clip-rule="evenodd" d="M15.099 2.23366C15.1806 2.06391 15.3085 1.92066 15.468 1.8204C15.6274 1.72015 15.812 1.66697 16.0003 1.66699C16.9817 1.66877 17.9372 1.76433 18.867 1.95366C25.4083 3.28166 30.3337 9.06432 30.3337 16.0003C30.3337 23.9163 23.9163 30.3337 16.0003 30.3337C8.08433 30.3337 1.66699 23.9163 1.66699 16.0003C1.66699 10.1203 5.20699 5.07099 10.267 2.86033C10.388 2.80299 10.5193 2.77055 10.6531 2.76491C10.7869 2.75928 10.9204 2.78058 11.0458 2.82754C11.1712 2.8745 11.2859 2.94617 11.3831 3.03829C11.4803 3.13042 11.558 3.24112 11.6116 3.36384C11.6652 3.48656 11.6936 3.61879 11.6951 3.75269C11.6966 3.88659 11.6712 4.01943 11.6204 4.14333C11.5696 4.26723 11.4945 4.37967 11.3994 4.47398C11.3043 4.56828 11.1913 4.64253 11.067 4.69233C9.02922 5.58168 7.26976 7.00536 5.97479 8.81272C4.67982 10.6201 3.89751 12.7439 3.71063 14.9594C3.52376 17.1749 3.93927 19.3998 4.9132 21.3985C5.88714 23.3972 7.38327 25.0955 9.24328 26.3136C11.1033 27.5318 13.258 28.2244 15.4794 28.3183C17.7008 28.4122 19.9063 27.9039 21.8625 26.8471C23.8187 25.7903 25.4528 24.2244 26.5919 22.315C27.7311 20.4056 28.3329 18.2237 28.3337 16.0003C28.3332 13.3696 27.4921 10.8079 25.933 8.68893C24.3739 6.56999 22.1785 5.00476 19.667 4.22166V6.00033C19.6672 6.20771 19.603 6.41004 19.4832 6.57931C19.3634 6.74857 19.1939 6.8764 18.9982 6.9451C18.8025 7.01379 18.5904 7.01994 18.391 6.96271C18.1917 6.90548 18.0151 6.78769 17.8857 6.62566L15.219 3.29233C15.1012 3.14511 15.0275 2.96762 15.0063 2.7803C14.985 2.59299 15.0172 2.40349 15.099 2.23366Z" fill="white"/>
</svg>
