<svg width="328" height="118" viewBox="0 0 328 118" fill="none" xmlns="http://www.w3.org/2000/svg">
<path d="M0 50.3509C3.90625 49.9109 7.8715 50.2567 11.6641 51.3841C16.7534 52.8969 21.3477 55.7625 24.9727 59.6839C28.5977 63.6055 31.1223 68.4416 32.2842 73.6917C33.446 78.9417 33.2033 84.4158 31.582 89.5481C29.9607 94.6804 27.0193 99.2853 23.0615 102.886C19.1036 106.487 14.2726 108.953 9.06836 110.031C6.07131 110.651 3.01326 110.796 0 110.476V94.2415C1.94978 94.6991 3.98072 94.7293 5.95508 94.3206C8.39952 93.8146 10.6683 92.6555 12.5273 90.9642C14.3864 89.2728 15.7687 87.1102 16.5303 84.6995C17.2918 82.2888 17.4051 79.7173 16.8594 77.2513C16.3136 74.7854 15.1283 72.5141 13.4258 70.6722C11.7231 68.8301 9.56447 67.4844 7.17383 66.7737C4.84003 66.08 2.36774 66.0172 0 66.5882V50.3509Z" fill="#C3F1FF"/>
<path d="M285.182 10.7666L303.655 5.56445C310.461 3.64769 317.414 7.99346 318.714 14.8945L318.771 15.2246L322.889 40.918L329.991 38.7461V55.9336L322.837 58.1221C315.866 60.2543 308.618 55.7358 307.464 48.5381L303.328 22.7314L284.693 27.9805C277.626 29.9709 270.443 25.2114 269.521 17.9277L267 -2H283.567L285.182 10.7666Z" fill="#C3F1FF"/>
<path d="M163.623 14.5728L131.868 34.1018L163.623 51.9322V14.5728Z" fill="#1BA4CF"/>
<path d="M121 47.1775L131.892 34.0947L163.816 52.0098L152.925 66.0268L121 47.1775Z" fill="#96E6FC"/>
<path d="M197.416 33.932L163.623 14.5732V52.9512L197.416 33.932Z" fill="#23C0F2"/>
<path d="M131.529 67.725V53.3968L152.897 65.9066L163.647 52.2021L164.63 88.7433L131.529 67.725Z" fill="#21C1F6"/>
<path d="M164.385 88.7821L163.626 52.0833L164.192 52.6152L170.098 58.8317L176.301 65.4235L197.673 53.3163L197.926 70.612L164.385 88.7821Z" fill="#64D8FF"/>
<path d="M176.359 65.5175L163.537 51.9956L197.379 33.9163L207.435 47.8568L176.359 65.5175Z" fill="#9CE5FE"/>
<path d="M139.77 36.5107C139.77 35.8857 140.427 35.4786 140.987 35.7558L151.389 40.9023C151.676 41.0445 151.857 41.3377 151.857 41.6581V50.8329C151.857 51.466 151.185 51.8731 150.624 51.58L140.224 46.1474C139.945 46.0021 139.77 45.7142 139.77 45.4003V36.5107ZM146.545 43.5009C145.222 42.5417 143.656 42.4431 143.05 43.2802C142.443 44.1174 143.024 45.574 144.348 46.5331C145.671 47.492 147.235 47.5907 147.842 46.7538C148.448 45.9167 147.868 44.4601 146.545 43.5009ZM146.115 40.7607C145.571 40.3665 144.906 40.355 144.631 40.7353C144.355 41.1156 144.573 41.7435 145.117 42.1376C145.661 42.5316 146.325 42.5433 146.6 42.163C146.876 41.7828 146.659 41.1548 146.115 40.7607Z" fill="white"/>
<path d="M167.466 34.1526C168.003 33.9447 168.585 34.3232 168.613 34.8978L169.016 43.3685C169.033 43.7151 168.835 44.0364 168.518 44.178L159.816 48.0687C159.28 48.3083 158.669 47.9392 158.631 47.3528L158.059 38.43C158.036 38.0633 158.253 37.7241 158.595 37.5911L167.466 34.1526ZM165.964 40.4271C165.405 39.6266 164.12 39.8146 163.093 40.847C162.067 41.8794 161.688 43.3658 162.247 44.1663C162.805 44.9668 164.091 44.7787 165.117 43.7464C166.143 42.714 166.522 41.2276 165.964 40.4271ZM164.483 37.9788C164.229 37.6152 163.681 37.664 163.259 38.0882C162.838 38.5124 162.702 39.1513 162.956 39.515C163.209 39.8786 163.757 39.8297 164.178 39.4056C164.6 38.9814 164.737 38.3425 164.483 37.9788Z" fill="white"/>
<path d="M144.298 10.6883C144.298 9.41353 145.658 8.59975 146.781 9.20298L158.736 15.6268C159.283 15.9206 159.625 16.4915 159.625 17.1122V28.4794C159.625 29.7711 158.231 30.5831 157.107 29.9461L145.152 23.1649C144.625 22.8656 144.298 22.3058 144.298 21.6991V10.6883ZM153.498 18.702C151.647 17.3602 149.458 17.2216 148.609 18.3924C147.76 19.5636 148.573 21.6013 150.424 22.9432C152.275 24.2851 154.465 24.4229 155.313 23.2518C156.162 22.0806 155.349 20.0438 153.498 18.702Z" fill="#E6E1FF"/>
<path d="M185.247 34.7469C186.651 33.9203 188.423 34.9334 188.423 36.5633V47.3328C188.423 48.1084 187.996 48.821 187.313 49.1883L175.892 55.3269C174.502 56.074 172.815 55.0844 172.788 53.5066L172.617 43.4236C172.604 42.6646 173.001 41.9572 173.655 41.572L185.247 34.7469ZM183.894 44.242C183.148 42.8944 181.224 43.0534 179.596 44.5974C177.969 46.1415 177.255 48.4861 178.001 49.8338C178.747 51.1813 180.671 51.0222 182.299 49.4783C183.926 47.9342 184.64 45.5896 183.894 44.242ZM181.95 40.1453C181.611 39.5331 180.793 39.5518 180.125 40.1863C179.456 40.8208 179.189 41.831 179.528 42.4431C179.867 43.0553 180.684 43.0374 181.352 42.4031C182.021 41.7686 182.289 40.7575 181.95 40.1453Z" fill="#E7E0FF"/>
<ellipse cx="1.08308" cy="0.80294" rx="1.08308" ry="0.80294" transform="matrix(-0.704969 0.709238 0.572257 0.820074 164.023 37.3203)" fill="#14A2ED"/>
<ellipse cx="2.6357" cy="1.7675" rx="2.6357" ry="1.7675" transform="matrix(-0.704969 0.709238 0.572257 0.820074 164.952 38.9778)" fill="#14A2ED"/>
<ellipse cx="145.616" cy="41.4494" rx="1.21605" ry="0.850457" transform="rotate(35.937 145.616 41.4494)" fill="#FF9849"/>
<ellipse cx="145.446" cy="45.0172" rx="2.95928" ry="1.8721" transform="rotate(35.937 145.446 45.0172)" fill="#FF9849"/>
<ellipse cx="1.66915" cy="1.2671" rx="1.66915" ry="1.2671" transform="matrix(-0.725399 0.688329 0.484419 0.874836 181.336 39.0371)" fill="#401DDC"/>
<ellipse cx="4.06192" cy="2.78924" rx="4.06192" ry="2.78924" transform="matrix(-0.725399 0.688329 0.484419 0.874836 182.543 41.802)" fill="#401DDC"/>
<ellipse cx="152.199" cy="15.8311" rx="1.70123" ry="1.18977" transform="rotate(35.937 152.199 15.8311)" fill="#1BA1F0"/>
<ellipse cx="151.961" cy="20.8225" rx="4.13997" ry="2.61903" transform="rotate(35.937 151.961 20.8225)" fill="#1998E2"/>
</svg>
