<svg width="328" height="118" viewBox="0 0 328 118" fill="none" xmlns="http://www.w3.org/2000/svg">
<path d="M284.093 -1.40234H308.423C307.512 -1.03782 306.633 -0.59084 305.799 -0.0615234C303.445 1.43244 301.524 3.51743 300.222 5.99121C298.92 8.46496 298.281 11.2436 298.367 14.0576C298.454 16.8717 299.264 19.6259 300.717 22.0527C302.17 24.4795 304.217 26.4971 306.66 27.9092C309.104 29.3213 311.861 30.08 314.663 30.1123C317.465 30.1446 320.219 29.4496 322.655 28.0938C324.737 26.9355 326.525 25.3274 327.901 23.3916V46.0752C323.732 47.7557 319.251 48.6031 314.709 48.5508C308.743 48.482 302.874 46.8665 297.672 43.8604C292.47 40.8541 288.11 36.5592 285.017 31.3926C281.923 26.2259 280.201 20.3623 280.017 14.3711C279.84 8.63096 281.081 2.96049 283.623 -2.13672L284.093 -1.40234Z" fill="#FEE0CD"/>
<path d="M163.623 24.5728L131.868 44.1018L163.623 61.9322V24.5728Z" fill="#FF9950"/>
<path d="M121 57.1775L131.892 44.0947L163.816 62.0098L152.925 76.0268L121 57.1775Z" fill="#FEC9A8"/>
<path d="M197.416 43.932L163.623 24.5732V62.9512L197.416 43.932Z" fill="#FDBA56"/>
<path d="M131.528 77.725V63.3968L152.897 75.9066L163.647 62.2021L164.63 98.7433L131.528 77.725Z" fill="#FFBA50"/>
<path d="M164.384 98.7818L163.626 62.083L164.192 62.615L170.098 68.8315L176.301 75.4233L197.673 63.3161L197.926 80.6118L164.384 98.7818Z" fill="#FFCA7A"/>
<path d="M176.359 75.5172L163.537 61.9954L197.379 43.916L207.435 57.8566L176.359 75.5172Z" fill="#FEC9A8"/>
<path d="M139.77 46.5109C139.77 45.886 140.427 45.4788 140.987 45.756L151.389 50.9025C151.676 51.0447 151.857 51.338 151.857 51.6584V60.8332C151.857 61.4663 151.185 61.8734 150.624 61.5803L140.223 56.1476C139.945 56.0023 139.77 55.7143 139.77 55.4006V46.5109ZM146.545 53.5012C145.222 52.542 143.656 52.4433 143.05 53.2805C142.443 54.1176 143.024 55.5742 144.348 56.5334C145.671 57.4923 147.235 57.5911 147.842 56.7541C148.448 55.9169 147.868 54.4604 146.545 53.5012ZM146.115 50.7609C145.571 50.3668 144.906 50.3553 144.631 50.7355C144.355 51.1157 144.573 51.7437 145.116 52.1379C145.66 52.532 146.325 52.5436 146.6 52.1633C146.876 51.783 146.659 51.155 146.115 50.7609Z" fill="white"/>
<path d="M144.298 20.6875C144.298 19.4129 145.658 18.5999 146.781 19.2031L158.736 25.6269C159.283 25.9206 159.624 26.4908 159.624 27.1113V38.4795C159.624 39.7714 158.231 40.5826 157.107 39.9453L145.152 33.165C144.624 32.8657 144.298 32.3059 144.298 31.6992V20.6875ZM153.498 28.7021C151.647 27.3603 149.458 27.2217 148.609 28.3925C147.76 29.5637 148.572 31.6014 150.424 32.9433C152.275 34.2852 154.464 34.4231 155.313 33.2519C156.162 32.0807 155.349 30.0439 153.498 28.7021Z" fill="#E6E1FF"/>
<path d="M168.959 24.4401C168.959 23.809 169.627 23.4017 170.188 23.6911L183.231 30.4294C183.511 30.5741 183.687 30.8632 183.687 31.1784V43.3522C183.687 43.992 183.002 44.3987 182.44 44.0925L169.398 36.9811C169.127 36.8335 168.959 36.5493 168.959 36.2409V24.4401ZM177.214 33.6755C175.601 32.4553 173.694 32.3294 172.955 33.3942C172.215 34.4591 172.923 36.3117 174.536 37.5319C176.148 38.7519 178.054 38.8778 178.794 37.8132C179.533 36.7483 178.826 34.8957 177.214 33.6755ZM176.689 30.1891C176.027 29.688 175.217 29.6742 174.881 30.1579C174.546 30.6417 174.811 31.4398 175.473 31.9411C176.136 32.4424 176.945 32.457 177.281 31.9733C177.617 31.4896 177.352 30.6906 176.689 30.1891Z" fill="#F9F2EE"/>
<path d="M167.408 44.2545C167.944 44.0465 168.526 44.425 168.554 44.9996L168.957 53.4703C168.974 53.8169 168.776 54.1382 168.459 54.2799L159.757 58.1705C159.221 58.4101 158.61 58.041 158.573 57.4547L158 48.5318C157.977 48.165 158.194 47.8249 158.537 47.692L167.408 44.2545ZM165.905 50.5289C165.346 49.7284 164.061 49.9164 163.035 50.9488C162.008 51.9812 161.629 53.4676 162.188 54.2681C162.747 55.0686 164.032 54.8805 165.058 53.8482C166.084 52.8158 166.463 51.3294 165.905 50.5289ZM164.424 48.0806C164.17 47.717 163.622 47.7659 163.201 48.19C162.779 48.6142 162.643 49.2531 162.897 49.6168C163.151 49.9804 163.698 49.9315 164.12 49.5074C164.541 49.0832 164.678 48.4443 164.424 48.0806Z" fill="white"/>
<ellipse cx="1.08308" cy="0.80294" rx="1.08308" ry="0.80294" transform="matrix(-0.704969 0.709238 0.572257 0.820074 163.964 47.4219)" fill="#14A2ED"/>
<ellipse cx="2.6357" cy="1.7675" rx="2.6357" ry="1.7675" transform="matrix(-0.704969 0.709238 0.572257 0.820074 164.893 49.0796)" fill="#14A2ED"/>
<ellipse cx="1.50455" cy="1.06639" rx="1.50455" ry="1.06639" transform="matrix(0.797418 0.603428 -0.57034 0.821409 175.49 29.2812)" fill="#13A2ED"/>
<ellipse cx="3.66134" cy="2.34742" rx="3.66134" ry="2.34742" transform="matrix(0.797418 0.603428 -0.57034 0.821409 174.294 31.4658)" fill="#13A2ED"/>
<path d="M189.034 38.4949C190.438 37.6684 192.209 38.6814 192.209 40.3113V51.0808C192.209 51.8564 191.783 52.569 191.1 52.9363L179.679 59.0749C178.289 59.8221 176.601 58.8324 176.575 57.2546L176.404 47.1716C176.391 46.4126 176.788 45.7052 177.442 45.3201L189.034 38.4949ZM187.681 47.99C186.935 46.6424 185.011 46.8014 183.383 48.3455C181.756 49.8895 181.042 52.2341 181.788 53.5818C182.534 54.9294 184.458 54.7703 186.085 53.2263C187.713 51.6822 188.427 49.3376 187.681 47.99ZM185.737 43.8933C185.398 43.2811 184.58 43.2998 183.912 43.9343C183.243 44.5689 182.976 45.5791 183.315 46.1912C183.654 46.8033 184.47 46.7854 185.139 46.1511C185.808 45.5166 186.076 44.5055 185.737 43.8933Z" fill="#E7E0FF"/>
<ellipse cx="145.616" cy="51.4492" rx="1.21605" ry="0.850457" transform="rotate(35.937 145.616 51.4492)" fill="#FF9849"/>
<ellipse cx="145.446" cy="55.0172" rx="2.95928" ry="1.8721" transform="rotate(35.937 145.446 55.0172)" fill="#FF9849"/>
<ellipse cx="1.66915" cy="1.2671" rx="1.66915" ry="1.2671" transform="matrix(-0.725399 0.688329 0.484419 0.874836 185.123 42.7852)" fill="#401DDC"/>
<ellipse cx="4.06192" cy="2.78924" rx="4.06192" ry="2.78924" transform="matrix(-0.725399 0.688329 0.484419 0.874836 186.33 45.5498)" fill="#401DDC"/>
<ellipse cx="152.199" cy="25.8314" rx="1.70123" ry="1.18977" transform="rotate(35.937 152.199 25.8314)" fill="#1BA1F0"/>
<ellipse cx="151.961" cy="30.8222" rx="4.13997" ry="2.61903" transform="rotate(35.937 151.961 30.8222)" fill="#1998E2"/>
<path d="M-0.136597 71.1138C0.535861 71.3992 1.18416 71.7721 1.79211 72.2349L30.588 94.1558C34.5208 97.1496 35.282 102.765 32.2882 106.698C29.2944 110.631 23.679 111.392 19.7462 108.398L-0.136597 93.2612V71.1138Z" fill="#FEE0CD"/>
<path d="M36.6553 6.08154L22.8574 2.1958L22.5332 2.10986C15.8328 0.418434 9.07899 4.7347 7.7998 11.5259L7.74219 11.8569L4.5498 31.7749L-0.811523 30.1353L-3.21582 37.9937L-5.61914 45.853L4.60156 48.979C11.5727 51.1113 18.821 46.5921 19.9746 39.394L23.1846 19.3628L37.1436 23.2954C44.2106 25.2858 51.3939 20.5256 52.3154 13.2417L54.4033 -3.25928H37.8359L36.6553 6.08154Z" fill="#FEE0CD"/>
</svg>
