<svg width="328" height="118" viewBox="0 0 328 118" fill="none" xmlns="http://www.w3.org/2000/svg">
<path d="M164.801 14L131.423 34.5266L164.801 53.2678V14Z" fill="#4219D8"/>
<path d="M120 48.2701L131.448 34.519L165.003 53.3493L153.556 68.0823L120 48.2701Z" fill="#997BFF"/>
<path d="M200.32 34.3482L164.801 14.0005V54.3389L200.32 34.3482Z" fill="#6237FF"/>
<path d="M131.066 69.8671V54.8069L153.526 67.9558L164.825 53.5513L165.859 91.959L131.066 69.8671Z" fill="#6237FA"/>
<path d="M165.601 92.0003L164.804 53.4268L165.398 53.9859L171.606 60.52L178.126 67.4485L200.59 54.7228L200.855 72.902L165.601 92.0003Z" fill="#8662FF"/>
<path d="M178.187 67.547L164.71 53.3344L200.281 34.3315L210.851 48.9842L178.187 67.547Z" fill="#997BFF"/>
<path d="M189.275 9.30941C190.751 8.44056 192.612 9.50468 192.613 11.2176V22.5379C192.613 23.3532 192.165 24.1031 191.447 24.4891L179.443 30.9403C177.982 31.7255 176.208 30.6856 176.18 29.0272L176 18.4286C175.987 17.6308 176.404 16.8871 177.091 16.4823L189.275 9.30941ZM187.853 19.2889C187.068 17.8727 185.046 18.04 183.335 19.6629C181.625 21.2859 180.874 23.7503 181.659 25.1668C182.443 26.5833 184.466 26.4158 186.176 24.7928C187.887 23.1698 188.637 20.7054 187.853 19.2889ZM185.809 14.9832C185.452 14.3401 184.594 14.3594 183.891 15.0262C183.188 15.6932 182.908 16.7558 183.264 17.3993C183.62 18.0423 184.479 18.0231 185.182 17.3563C185.885 16.6893 186.165 15.6267 185.809 14.9832Z" fill="#E7E0FF"/>
<ellipse cx="1.75442" cy="1.33182" rx="1.75442" ry="1.33182" transform="matrix(-0.725399 0.688329 0.484419 0.874836 185.164 13.8184)" fill="#FE8406"/>
<ellipse cx="4.26941" cy="2.93172" rx="4.26941" ry="2.93172" transform="matrix(-0.725399 0.688329 0.484419 0.874836 186.432 16.7246)" fill="#FE8406"/>
<path d="M0 50.3507C3.90624 49.9107 7.87151 50.2575 11.6641 51.3849C16.7535 52.8978 21.3477 55.7632 24.9727 59.6847C28.5977 63.6064 31.1223 68.4423 32.2842 73.6925C33.4459 78.9425 33.2033 84.4167 31.582 89.5489C29.9607 94.6812 27.0194 99.2861 23.0615 102.887C19.1036 106.488 14.2726 108.954 9.06836 110.031C6.07136 110.652 3.01321 110.797 0 110.477V94.2413C1.9498 94.6989 3.9807 94.7291 5.95508 94.3204C8.39937 93.8144 10.6684 92.6561 12.5273 90.965C14.3864 89.2736 15.7687 87.1101 16.5303 84.6993C17.2917 82.2887 17.4051 79.717 16.8594 77.2511C16.3136 74.7853 15.1283 72.5139 13.4258 70.672C11.7231 68.8299 9.56448 67.4842 7.17383 66.7735C4.84007 66.0798 2.3677 66.017 0 66.588V50.3507Z" fill="#CDBDFE"/>
<path d="M139.77 36.5113C139.77 35.8863 140.427 35.4783 140.987 35.7554L151.389 40.9029C151.676 41.045 151.857 41.3375 151.857 41.6578V50.8335C151.857 51.4666 151.185 51.8737 150.624 51.5806L140.224 46.148C139.945 46.0027 139.77 45.7147 139.77 45.4009V36.5113ZM146.545 43.5015C145.222 42.5423 143.656 42.4437 143.05 43.2808C142.443 44.118 143.024 45.5737 144.348 46.5328C145.671 47.4918 147.235 47.5912 147.842 46.7544C148.448 45.9173 147.868 44.4607 146.545 43.5015ZM146.115 40.7613C145.571 40.3671 144.906 40.3556 144.631 40.7359C144.355 41.1162 144.573 41.7441 145.117 42.1382C145.661 42.5321 146.325 42.5436 146.6 42.1636C146.876 41.7834 146.659 41.1555 146.115 40.7613Z" fill="white"/>
<path d="M144.298 10.6883C144.298 9.41353 145.658 8.59975 146.781 9.20298L158.736 15.6268C159.283 15.9206 159.625 16.4915 159.625 17.1122V28.4794C159.625 29.7711 158.231 30.5831 157.107 29.9461L145.152 23.1649C144.625 22.8656 144.298 22.3058 144.298 21.6991V10.6883ZM153.498 18.702C151.647 17.3602 149.458 17.2216 148.609 18.3924C147.76 19.5636 148.573 21.6013 150.424 22.9432C152.275 24.2851 154.465 24.4229 155.313 23.2518C156.162 22.0806 155.349 20.0438 153.498 18.702Z" fill="#E6E1FF"/>
<path d="M185.246 34.7477C186.651 33.9207 188.422 34.9331 188.422 36.5631V47.3327C188.422 48.1084 187.996 48.8218 187.313 49.1891L175.893 55.3278C174.503 56.0748 172.815 55.085 172.788 53.5075L172.617 43.4235C172.605 42.6645 173.001 41.9571 173.655 41.5719L185.246 34.7477ZM183.894 44.2418C183.148 42.8945 181.223 43.0542 179.596 44.5983C177.969 46.1424 177.255 48.4861 178.001 49.8336C178.748 51.1813 180.672 51.0223 182.299 49.4782C183.926 47.934 184.64 45.5894 183.894 44.2418ZM181.95 40.1461C181.611 39.534 180.794 39.5518 180.125 40.1862C179.457 40.8207 179.189 41.8318 179.528 42.444C179.867 43.056 180.684 43.0374 181.353 42.403C182.021 41.7685 182.288 40.7583 181.95 40.1461Z" fill="#E7E0FF"/>
<ellipse cx="145.616" cy="41.4492" rx="1.21605" ry="0.850457" transform="rotate(35.937 145.616 41.4492)" fill="#FF9849"/>
<ellipse cx="145.446" cy="45.0172" rx="2.95928" ry="1.8721" transform="rotate(35.937 145.446 45.0172)" fill="#FF9849"/>
<ellipse cx="1.66915" cy="1.2671" rx="1.66915" ry="1.2671" transform="matrix(-0.725399 0.688329 0.484419 0.874836 181.336 39.0371)" fill="#401DDC"/>
<ellipse cx="4.06192" cy="2.78924" rx="4.06192" ry="2.78924" transform="matrix(-0.725399 0.688329 0.484419 0.874836 182.543 41.8018)" fill="#401DDC"/>
<ellipse cx="152.199" cy="15.8314" rx="1.70123" ry="1.18977" transform="rotate(35.937 152.199 15.8314)" fill="#1BA1F0"/>
<ellipse cx="151.961" cy="20.8227" rx="4.13997" ry="2.61903" transform="rotate(35.937 151.961 20.8227)" fill="#1998E2"/>
<path d="M354.632 49.6368C350.015 57.306 343.486 63.619 335.678 67.9634C327.871 72.3079 319.049 74.5364 310.07 74.433C301.09 74.3295 292.258 71.8974 284.428 67.3728C276.598 62.8481 270.038 56.3843 265.382 48.6082C260.726 40.8321 258.134 32.0076 257.856 22.9906C257.578 13.9735 259.624 5.06988 263.796 -2.85689C267.968 -10.7836 274.123 -17.4645 281.666 -22.2516C289.209 -27.0387 297.882 -29.7696 306.846 -30.1793L308.487 -2.45537C304.276 -2.26289 300.202 -0.980177 296.659 1.26838C293.117 3.51693 290.225 6.655 288.266 10.3783C286.306 14.1016 285.345 18.2837 285.476 22.5191C285.606 26.7545 286.824 30.8995 289.011 34.552C291.198 38.2045 294.279 41.2406 297.957 43.3659C301.634 45.4912 305.783 46.6335 310.001 46.6821C314.219 46.7307 318.362 45.684 322.03 43.6433C325.697 41.6027 328.764 38.6374 330.933 35.0351L354.632 49.6368Z" fill="#CDBDFE"/>
</svg>
