<svg width="20" height="20" viewBox="0 0 20 20" fill="none" xmlns="http://www.w3.org/2000/svg">
<path fill-rule="evenodd" clip-rule="evenodd" d="M17.0711 17.0711C20.9764 13.1658 20.9764 6.83418 17.0711 2.92893C13.1659 -0.976311 6.83422 -0.976311 2.92898 2.92893C-0.976265 6.83418 -0.976265 13.1658 2.92898 17.0711C6.83422 20.9763 13.1659 20.9763 17.0711 17.0711ZM8.40906 7.34835C8.11616 7.05546 7.64129 7.05546 7.3484 7.34835C7.0555 7.64124 7.0555 8.11612 7.3484 8.40901L8.9394 10L7.34841 11.591C7.05552 11.8839 7.05552 12.3588 7.34841 12.6517C7.64131 12.9446 8.11618 12.9446 8.40907 12.6517L10.0001 11.0607L11.591 12.6517C11.8839 12.9445 12.3588 12.9445 12.6517 12.6517C12.9446 12.3588 12.9446 11.8839 12.6517 11.591L11.0607 10L12.6517 8.40903C12.9446 8.11613 12.9446 7.64126 12.6517 7.34837C12.3588 7.05547 11.8839 7.05547 11.5911 7.34837L10.0001 8.93936L8.40906 7.34835Z" fill="#1CB0F6"/>
</svg>
