<svg width="24" height="24" viewBox="0 0 24 24" fill="none" xmlns="http://www.w3.org/2000/svg">
<g id="Frame">
<g id="Group">
<path id="Vector" d="M11.9998 0L1.60742 6V18L11.9998 24L22.3921 18V6L11.9998 0Z" fill="#82D2FF"/>
<path id="Vector_2" d="M11.9998 12V0L1.60742 6L11.9998 12Z" fill="#08B7FC"/>
<path id="Vector_3" d="M1.60742 6V18L11.9998 12L1.60742 6Z" fill="#1CB0F6"/>
<path id="Vector_4" d="M22.3923 6L12 12L22.3923 18V6Z" fill="#08B7FC"/>
<path id="Vector_5" d="M11.9998 12L1.60742 18L11.9998 24V12Z" fill="#1CB0F6"/>
<path id="Vector_6" d="M12 24L22.3923 18L12 12V24Z" fill="#1CB0F6"/>
<path id="Vector_7" d="M17.8653 15.3861V8.61374L12.0003 5.22754L6.13525 8.61374V15.3861L12.0003 18.7723L17.8653 15.3861Z" fill="#82D2FF"/>
</g>
</g>
</svg>
