<svg width="20" height="20" viewBox="0 0 20 20" fill="none" xmlns="http://www.w3.org/2000/svg">
<rect width="20" height="20" fill="#1E1E1E"/>
<g id="light">
<path d="M-318 -3640C-318 -3641.1 -317.105 -3642 -316 -3642H11241C11242.1 -3642 11243 -3641.1 11243 -3640V19277C11243 19278.1 11242.1 19279 11241 19279H-316C-317.105 19279 -318 19278.1 -318 19277V-3640Z" fill="#444444"/>
<path d="M-318 -3640C-318 -3641.1 -317.105 -3642 -316 -3642H11241C11242.1 -3642 11243 -3641.1 11243 -3640V19277C11243 19278.1 11242.1 19279 11241 19279H-316C-317.105 19279 -318 19278.1 -318 19277V-3640Z" fill="white" fill-opacity="0.2"/>
<path d="M-316 -3642V-3641H11241V-3642V-3643H-316V-3642ZM11243 -3640H11242V19277H11243H11244V-3640H11243ZM11241 19279V19278H-316V19279V19280H11241V19279ZM-318 19277H-317V-3640H-318H-319V19277H-318ZM-316 19279V19278C-316.552 19278 -317 19277.6 -317 19277H-318H-319C-319 19278.7 -317.657 19280 -316 19280V19279ZM11243 19277H11242C11242 19277.6 11241.6 19278 11241 19278V19279V19280C11242.7 19280 11244 19278.7 11244 19277H11243ZM11241 -3642V-3641C11241.6 -3641 11242 -3640.55 11242 -3640H11243H11244C11244 -3641.66 11242.7 -3643 11241 -3643V-3642ZM-316 -3642V-3643C-317.657 -3643 -319 -3641.66 -319 -3640H-318H-317C-317 -3640.55 -316.552 -3641 -316 -3641V-3642Z" fill="white" fill-opacity="0.1"/>
<g id="Plan">
<path d="M-270 -533C-270 -534.105 -269.105 -535 -268 -535H8255C8256.1 -535 8257 -534.105 8257 -533V6578C8257 6579.1 8256.1 6580 8255 6580H-268C-269.105 6580 -270 6579.1 -270 6578V-533Z" fill="#444444"/>
<path d="M-268 -535V-534H8255V-535V-536H-268V-535ZM8257 -533H8256V6578H8257H8258V-533H8257ZM8255 6580V6579H-268V6580V6581H8255V6580ZM-270 6578H-269V-533H-270H-271V6578H-270ZM-268 6580V6579C-268.552 6579 -269 6578.55 -269 6578H-270H-271C-271 6579.66 -269.657 6581 -268 6581V6580ZM8257 6578H8256C8256 6578.55 8255.55 6579 8255 6579V6580V6581C8256.66 6581 8258 6579.66 8258 6578H8257ZM8255 -535V-534C8255.55 -534 8256 -533.552 8256 -533H8257H8258C8258 -534.657 8256.66 -536 8255 -536V-535ZM-268 -535V-536C-269.657 -536 -271 -534.657 -271 -533H-270H-269C-269 -533.552 -268.552 -534 -268 -534V-535Z" fill="white" fill-opacity="0.1"/>
<g id="home / pop corse" clip-path="url(#clip0_182_3335)">
<rect width="360" height="800" transform="translate(-170 -435)" fill="#141F23"/>
<g id="Frame 1410133226">
<g id="Frame 1410133209">
<g id="Frame 1410133207">
<g id="Product Card">
<rect x="-144.5" y="-16.5" width="309" height="53" rx="6.5" stroke="#3B464C" stroke-width="3"/>
<g id="Frame 1410133212">
<path id="Vector" d="M18 10H10M10 10H2M10 10V2M10 10V18" stroke="#3B464C" stroke-width="4" stroke-linecap="round"/>
</g>
</g>
</g>
</g>
</g>
</g>
</g>
</g>
<defs>
<clipPath id="clip0_182_3335">
<rect width="360" height="800" fill="white" transform="translate(-170 -435)"/>
</clipPath>
</defs>
</svg>
