<svg width="32" height="32" viewBox="0 0 32 32" fill="none" xmlns="http://www.w3.org/2000/svg">
<g id="solar:clapperboard-play-bold">
<path id="Vector" d="M16 2.66669C18.46 2.66669 20.44 2.66669 22.0533 2.78402L17.4667 9.66669H11.2L15.8667 2.66669H16ZM4.61867 4.61869C6.28934 2.94935 8.82934 2.70802 13.4613 2.67202L8.79867 9.66669H2.80534C3.00134 7.31469 3.476 5.76269 4.61867 4.61869Z" fill="white"/>
<path id="Vector_2" fill-rule="evenodd" clip-rule="evenodd" d="M2.66666 16C2.66666 14.3507 2.66666 12.9187 2.70133 11.6667H29.2987C29.3333 12.9187 29.3333 14.3507 29.3333 16C29.3333 22.2854 29.3333 25.428 27.38 27.38C25.4293 29.3334 22.2853 29.3334 16 29.3334C9.71466 29.3334 6.572 29.3334 4.61866 27.38C2.66666 25.4294 2.66666 22.2854 2.66666 16ZM17.352 16.78C19.1173 17.92 20 18.4894 20 19.3334C20 20.1774 19.1173 20.7467 17.352 21.8867C15.5627 23.0414 14.668 23.6187 14 23.1934C13.3333 22.7707 13.3333 21.6254 13.3333 19.3334C13.3333 17.0414 13.3333 15.896 14 15.472C14.6667 15.048 15.5627 15.6254 17.352 16.78Z" fill="white"/>
<path id="Vector_3" d="M29.1947 9.66669C28.9987 7.31469 28.524 5.76269 27.3813 4.61869C26.584 3.82269 25.5893 3.35202 24.2653 3.07202L19.8667 9.66669H29.1947Z" fill="white"/>
</g>
</svg>
