<svg width="14" height="15" viewBox="0 0 14 15" fill="none" xmlns="http://www.w3.org/2000/svg">
<path d="M7.00004 0.833496C3.32404 0.833496 0.333374 3.82416 0.333374 7.50016C0.333374 11.1762 3.32404 14.1668 7.00004 14.1668C10.676 14.1668 13.6667 11.1762 13.6667 7.50016C13.6667 3.82416 10.676 0.833496 7.00004 0.833496ZM5.66737 10.4422L3.66368 8.44278C3.40317 8.18284 3.40265 7.76096 3.6625 7.50037C3.92251 7.23962 4.34472 7.23914 4.60533 7.49929L5.66604 8.55816L8.72404 5.50016C8.98435 5.23985 9.4064 5.23985 9.66671 5.50016C9.92702 5.76047 9.92702 6.18252 9.66671 6.44283L5.66737 10.4422Z" fill="#58CC02"/>
</svg>
