<svg xmlns="http://www.w3.org/2000/svg" width="24" height="24" viewBox="0 0 24 24" fill="none">
  <path fill-rule="evenodd" clip-rule="evenodd" d="M1.625 12.0001C1.625 12.4141 1.961 12.7501 2.375 12.7501H13.348L11.387 14.4301C11.3121 14.4942 11.2506 14.5724 11.206 14.6603C11.1614 14.7481 11.1345 14.8439 11.1269 14.9421C11.1193 15.0404 11.1311 15.1392 11.1616 15.2328C11.1922 15.3265 11.2409 15.4133 11.305 15.4881C11.3691 15.563 11.4473 15.6245 11.5351 15.6691C11.623 15.7137 11.7188 15.7406 11.817 15.7482C11.9153 15.7559 12.014 15.744 12.1077 15.7135C12.2014 15.6829 12.2881 15.6342 12.363 15.5701L15.863 12.5701C15.9453 12.4997 16.0114 12.4123 16.0568 12.3139C16.1021 12.2155 16.1256 12.1085 16.1256 12.0001C16.1256 11.8918 16.1021 11.7847 16.0568 11.6863C16.0114 11.5879 15.9453 11.5005 15.863 11.4301L12.363 8.43012C12.2118 8.3007 12.0154 8.23662 11.817 8.252C11.6186 8.26738 11.4344 8.36095 11.305 8.51212C11.1756 8.66329 11.1115 8.85969 11.1269 9.0581C11.1423 9.25652 11.2358 9.44069 11.387 9.57012L13.347 11.2501H2.376C2.17709 11.2501 1.98632 11.3291 1.84567 11.4698C1.70502 11.6104 1.626 11.8012 1.626 12.0001" fill="#00557D"/>
  <path d="M9.375 9.75H9.753C9.5878 9.28275 9.58148 8.77403 9.73504 8.30283C9.8886 7.83162 10.1934 7.4243 10.6022 7.1441C11.011 6.86391 11.5009 6.72651 11.9957 6.75326C12.4906 6.78 12.9628 6.96938 13.339 7.292L16.839 10.292C17.0853 10.5032 17.283 10.7652 17.4186 11.0601C17.5542 11.3549 17.6243 11.6755 17.6243 12C17.6243 12.3245 17.5542 12.6451 17.4186 12.9399C17.283 13.2348 17.0853 13.4968 16.839 13.708L13.339 16.708C12.9628 17.0306 12.4906 17.22 11.9957 17.2467C11.5009 17.2735 11.011 17.1361 10.6022 16.8559C10.1934 16.5757 9.8886 16.1684 9.73504 15.6972C9.58148 15.226 9.5878 14.7172 9.753 14.25H9.375V16C9.375 18.828 9.375 20.243 10.254 21.121C11.132 22 12.547 22 15.375 22H16.375C19.203 22 20.618 22 21.496 21.121C22.375 20.243 22.375 18.828 22.375 16V8C22.375 5.172 22.375 3.757 21.496 2.879C20.618 2 19.203 2 16.375 2H15.375C12.547 2 11.132 2 10.254 2.879C9.375 3.757 9.375 5.172 9.375 8V9.75Z" fill="#00557D"/>
</svg>