<svg width="26" height="30" viewBox="0 0 26 30" fill="none" xmlns="http://www.w3.org/2000/svg">
<g filter="url(#filter0_d_3411_26)">
<path d="M4 6.52381C4 6.12932 4.32671 5.80952 4.72973 5.80952H9.51787C9.52437 4.9683 9.61554 3.81504 10.4504 3.01668C11.1074 2.38839 12.0081 2 13 2C13.9919 2 14.8926 2.38839 15.5496 3.01668C16.3844 3.81504 16.4756 4.9683 16.4821 5.80952H21.2703C21.6733 5.80952 22 6.12932 22 6.52381C22 6.9183 21.6733 7.2381 21.2703 7.2381H4.72973C4.32671 7.2381 4 6.9183 4 6.52381Z" fill="#C03221"/>
<path fill-rule="evenodd" clip-rule="evenodd" d="M12.5956 22H13.4044C16.1871 22 17.5785 22 18.4831 21.1141C19.3878 20.2281 19.4803 18.7749 19.6654 15.8685L19.9321 11.6806C20.0326 10.1036 20.0828 9.31511 19.6289 8.81545C19.1751 8.31579 18.4087 8.31579 16.876 8.31579H9.12404C7.59127 8.31579 6.82488 8.31579 6.37105 8.81545C5.91722 9.31511 5.96744 10.1036 6.06788 11.6806L6.33459 15.8685C6.5197 18.7749 6.61225 20.2281 7.51689 21.1141C8.42153 22 9.81289 22 12.5956 22ZM11.2463 12.1885C11.2051 11.7546 10.8375 11.4381 10.4254 11.4815C10.0132 11.5249 9.71251 11.9117 9.75372 12.3456L10.2537 17.6087C10.2949 18.0426 10.6625 18.3591 11.0746 18.3157C11.4868 18.2724 11.7875 17.8855 11.7463 17.4516L11.2463 12.1885ZM15.5746 11.4815C15.9868 11.5249 16.2875 11.9117 16.2463 12.3456L15.7463 17.6087C15.7051 18.0426 15.3375 18.3591 14.9254 18.3157C14.5132 18.2724 14.2125 17.8855 14.2537 17.4516L14.7537 12.1885C14.7949 11.7546 15.1625 11.4381 15.5746 11.4815Z" fill="#C03221"/>
</g>
<defs>
<filter id="filter0_d_3411_26" x="-3" y="0" width="32" height="32" filterUnits="userSpaceOnUse" color-interpolation-filters="sRGB">
<feFlood flood-opacity="0" result="BackgroundImageFix"/>
<feColorMatrix in="SourceAlpha" type="matrix" values="0 0 0 0 0 0 0 0 0 0 0 0 0 0 0 0 0 0 127 0" result="hardAlpha"/>
<feOffset dy="4"/>
<feGaussianBlur stdDeviation="2"/>
<feComposite in2="hardAlpha" operator="out"/>
<feColorMatrix type="matrix" values="0 0 0 0 0 0 0 0 0 0 0 0 0 0 0 0 0 0 0.25 0"/>
<feBlend mode="normal" in2="BackgroundImageFix" result="effect1_dropShadow_3411_26"/>
<feBlend mode="normal" in="SourceGraphic" in2="effect1_dropShadow_3411_26" result="shape"/>
</filter>
</defs>
</svg>
