<svg width="48" height="48" viewBox="0 0 48 48" fill="none" xmlns="http://www.w3.org/2000/svg">
<path d="M12.5714 38C7.83756 38 4 34.2076 4 29.5294C4 24.8512 7.83756 21.0588 12.5714 21.0588C13.1397 21.0588 13.695 21.1135 14.2323 21.2177M28.7619 16.0544C29.9534 15.6382 31.2357 15.4118 32.5714 15.4118C33.8808 15.4118 35.1387 15.6294 36.3102 16.03M14.2323 21.2177C13.7741 19.9956 13.5238 18.6737 13.5238 17.2941C13.5238 11.0565 18.6406 6 24.9524 6C30.8318 6 35.6742 10.3874 36.3102 16.03M14.2323 21.2177C15.3612 21.4368 16.4106 21.8748 17.3333 22.4852M36.3102 16.03C40.7859 17.5605 44 21.7622 44 26.7059C44 32.1199 40.1452 36.6442 35 37.7445" stroke="#1CB0F6" stroke-width="3" stroke-linecap="round"/>
<path d="M24 32V44M24 32L28 36M24 32L20 36" stroke="#1CB0F6" stroke-width="3" stroke-linecap="round" stroke-linejoin="round"/>
</svg>
