<svg width="135" height="76" viewBox="0 0 135 76" fill="none" xmlns="http://www.w3.org/2000/svg">
<rect width="135" height="76" rx="4" fill="#ADB5BD"/>
<path d="M67.25 28C65.8838 28.0013 64.7312 28.0101 63.75 28.0685V32.2498H67.25V28Z" fill="#F5F6FA"/>
<path d="M62.25 28.2214C61.0273 28.4157 60.1485 28.7802 59.4645 29.4642C58.7804 30.1483 58.4159 31.027 58.2216 32.2498H62.25V28.2214Z" fill="#F5F6FA"/>
<path fill-rule="evenodd" clip-rule="evenodd" d="M58 37.9998C58 36.2993 58 34.9056 58.0687 33.7498L77.9313 33.7498C78 34.9056 78 36.2993 78 37.9998C78 39.7002 78 41.094 77.9313 42.2498L58.0687 42.2498C58 41.094 58 39.7002 58 37.9998ZM68.4112 36.4043C69.4704 37.1162 70 37.4722 70 38C70 38.5278 69.4704 38.8838 68.4112 39.5957C67.3375 40.3173 66.8006 40.6781 66.4003 40.4132C66 40.1483 66 39.4322 66 38C66 36.5678 66 35.8517 66.4003 35.5868C66.8006 35.3219 67.3375 35.6827 68.4112 36.4043Z" fill="#F5F6FA"/>
<path d="M77.7784 32.2498C77.5841 31.027 77.2196 30.1483 76.5355 29.4642C75.8515 28.7802 74.9727 28.4157 73.75 28.2214V32.2498H77.7784Z" fill="#F5F6FA"/>
<path d="M68.75 28C70.1162 28.0013 71.2688 28.0101 72.25 28.0685V32.2498H68.75V28Z" fill="#F5F6FA"/>
<path d="M77.7784 43.7498H73.75V47.7781C74.9727 47.5839 75.8515 47.2193 76.5355 46.5353C77.2196 45.8513 77.5841 44.9725 77.7784 43.7498Z" fill="#F5F6FA"/>
<path d="M72.25 43.7498V47.931C71.2688 47.9894 70.1162 47.9982 68.75 47.9995V43.7498H72.25Z" fill="#F5F6FA"/>
<path d="M67.25 47.9995V43.7498H63.75L63.75 47.931C64.7312 47.9894 65.8838 47.9982 67.25 47.9995Z" fill="#F5F6FA"/>
<path d="M62.25 43.7498L62.25 47.7781C61.0273 47.5839 60.1485 47.2193 59.4645 46.5353C58.7804 45.8513 58.4159 44.9725 58.2216 43.7498H62.25Z" fill="#F5F6FA"/>
</svg>
